HIERARCHY
ROOT Hips
{
  OFFSET 25.7658 99.419 10.2675
  CHANNELS 6 Xposition Yposition Zposition Zrotation Xrotation Yrotation
  JOINT ToSpine
  {
    OFFSET -0.0105055 1.38907 -7.13956
    CHANNELS 3 Zrotation Xrotation Yrotation
    JOINT Spine
    {
      OFFSET 0.0105055 10 1
      CHANNELS 3 Zrotation Xrotation Yrotation
      JOINT Spine1
      {
        OFFSET 0 12 1.60637
        CHANNELS 3 Zrotation Xrotation Yrotation
        JOINT Neck
        {
          OFFSET 0 27 2.26658
          CHANNELS 3 Zrotation Xrotation Yrotation
          JOINT Head
          {
            OFFSET 0 9 2.12705
            CHANNELS 3 Zrotation Xrotation Yrotation
            End Site
            {
              OFFSET 0 11 2
            }
          }
        }
        JOINT LeftShoulder
        {
          OFFSET 8 19.6109 2.86452
          CHANNELS 3 Zrotation Xrotation Yrotation
          JOINT LeftArm
          {
            OFFSET 12 1 0.681055
            CHANNELS 3 Zrotation Xrotation Yrotation
            JOINT LeftForeArm
            {
              OFFSET 19 0 -1.52608
              CHANNELS 3 Zrotation Xrotation Yrotation
              JOINT LeftHand
              {
                OFFSET 23 0 0
                CHANNELS 3 Zrotation Xrotation Yrotation
                End Site
                {
                  OFFSET 10 0 0
                }
              }
            }
          }
        }
        JOINT RightShoulder
        {
          OFFSET -8 19.6109 2.86452
          CHANNELS 3 Zrotation Xrotation Yrotation
          JOINT RightArm
          {
            OFFSET -12 1 0.681055
            CHANNELS 3 Zrotation Xrotation Yrotation
            JOINT RightForeArm
            {
              OFFSET -19 0 -1.52608
              CHANNELS 3 Zrotation Xrotation Yrotation
              JOINT RightHand
              {
                OFFSET -23 0 0
                CHANNELS 3 Zrotation Xrotation Yrotation
                End Site
                {
                  OFFSET -10 0 0
                }
              }
            }
          }
        }
      }
    }
  }
  JOINT LeftUpLeg
  {
    OFFSET 9 -7.17245 0
    CHANNELS 3 Zrotation Xrotation Yrotation
    JOINT LeftLeg
    {
      OFFSET 0 -44.1113 0
      CHANNELS 3 Zrotation Xrotation Yrotation
      JOINT LeftFoot
      {
        OFFSET 0 -36.1829 0
        CHANNELS 3 Zrotation Xrotation Yrotation
        JOINT LeftToeBase
        {
          OFFSET 0 -4.84184 13
          CHANNELS 3 Zrotation Xrotation Yrotation
          End Site
          {
            OFFSET 0 1 6
          }
        }
      }
    }
  }
  JOINT RightUpLeg
  {
    OFFSET -9 -7.17245 0
    CHANNELS 3 Zrotation Xrotation Yrotation
    JOINT RightLeg
    {
      OFFSET 0 -44.0551 0
      CHANNELS 3 Zrotation Xrotation Yrotation
      JOINT RightFoot
      {
        OFFSET 0 -36.1469 0
        CHANNELS 3 Zrotation Xrotation Yrotation
        JOINT RightToeBase
        {
          OFFSET 0 -4.92256 13
          CHANNELS 3 Zrotation Xrotation Yrotation
          End Site
          {
            OFFSET 0 1 6
          }
        }
      }
    }
  }
}
MOTION
Frames:	7
Frame Time:	0.0333333
26.0465 96.4088 -90.465 -1.99342 -5.33455 10.7988 0 0 0 -6.22213 1.682 -5.25011 15.9341 5.85489 -8.89857 12.6388 21.2641 -2.67494 -7.66327 -0.478033 4.99913 -24.3588 3.6357 -8.34361 -47.4931 -1.71945 -29.1191 0.148947 -5.56641 -9.21043 -7.48103 0.454911 -6.94976 28.0863 5.24594 11.7626 47.2766 5.64699 -5.45421 2.23187 -5.10638 14.2601 2.8766 0.107954 4.2975 6.78696 7.31623 9.48218 4.85047e-007 30.8966 -29.4769 10.8775 -26.9801 2.61687 1.14995 -2.98196 -4.46542 -0.341328 -16.8458 -6.35915 2.60118 16.9999 -0.885489 -8.48942 8.23316 0.612113 4.13498 -15.6875 -5.78239 
26.5546 96.163 -93.0117 -0.814922 -4.8229 9.34491 0 0 0 -7.42762 2.05145 -4.45447 15.0007 5.36021 -7.89357 13.5079 21.4559 -2.97839 -7.12507 -0.791918 4.99149 -24.205 3.61825 -8.34352 -47.6081 -2.26321 -30.1099 0.493925 -4.05195 -8.9551 -7.0183 0.433072 -7.05326 28.8017 5.36917 11.8082 45.3224 8.28888 -3.72829 3.04991 -6.32394 13.671 4.6567 0.135881 3.34096 4.61482 5.6021 11.3479 -1.47432e-007 31.3584 -29.5522 12.4035 -27.7215 3.07181 1.03718 -1.34136 -4.17241 -2.14423 -17.7278 -7.23321 3.17464 15.2815 -0.844599 -11.0934 8.10463 0.788358 4.54734 -17.5049 -5.60382 
26.8854 95.974 -95.5007 -0.11612 -4.65859 7.8267 0 0 0 -7.65703 3.09322 -3.67886 13.3287 4.26478 -6.6698 14.477 21.3478 -3.51095 -7.37101 -0.598056 4.96356 -23.9028 3.61154 -8.43382 -47.1236 -1.9617 -29.5352 0.471351 -3.90991 -9.09885 -7.87045 0.46466 -6.74692 29.1486 5.42088 11.8067 44.44 8.4176 -2.01999 3.05814 -5.76961 12.5478 3.95086 0.138565 4.01574 3.5579 3.78702 13.8678 -2.04987e-006 32.4477 -30.7711 12.8862 -27.8098 3.20285 1.02453 -0.44629 -4.23447 -2.81269 -18.8006 -7.63852 3.28033 14.9525 -4.28178 -15.3155 5.92253 0.797006 4.33104 -16.3302 -3.49644 
27.4333 96.0423 -97.7967 1.12865 -5.27184 5.89637 0 0 0 -7.34716 4.4764 -2.82886 10.7372 3.8856 -5.28521 14.2429 21.0196 -3.23678 -6.97587 -0.828363 4.9952 -24.3763 3.59272 -8.19809 -45.3298 -0.677975 -28.3503 -0.013577 -5.4883 -8.91083 -8.80657 0.528234 -6.85175 29.0076 5.45161 11.9525 43.8842 8.55569 -0.134742 2.65138 -3.51395 11.2784 3.67534 0.139807 4.35539 1.56553 3.30494 16.1848 -0.00492961 32.3041 -30.7096 13.0817 -26.2785 3.06627 0.607969 -0.925529 -2.3687 -3.87773 -19.4415 -8.59437 2.60157 16.2683 -6.93537 -18.1625 3.40618 0.544594 4.22824 -15.9457 -3.94033 
27.9933 96.3472 -100.058 1.91158 -5.18826 3.9547 0 0 0 -5.89356 4.56539 -2.2982 7.00607 3.97359 -3.92303 13.9544 21.232 -2.9839 -5.91096 -1.86978 4.86337 -24.7873 3.61979 -8.13739 -44.1606 0.0430866 -26.0342 -0.663498 -8.39652 -8.87865 -7.57411 0.412794 -6.23011 29.0483 5.70225 12.637 43.6403 8.58826 1.28318 2.6719 -3.10884 10.1421 3.75632 0.141316 4.30748 -0.10813 2.24185 17.3579 -0.412162 31.3749 -29.2538 12.0019 -24.2449 2.58693 0.685664 -1.65672 -2.56646 -4.67099 -21.0378 -9.61817 1.47524 19.4903 -6.05905 -21.7287 3.22309 0.618745 4.3084 -16.3452 -4.62655 
28.6156 96.696 -102.029 3.17436 -5.69114 2.08379 0 0 0 -4.29781 4.97323 -1.55865 2.29623 4.19508 -2.18492 14.3708 21.176 -3.20302 -5.16183 -2.35357 4.65572 -25.0397 3.61267 -8.02537 -43.08 1.14472 -23.598 -0.952412 -9.37823 -7.93043 -8.95057 0.451943 -5.76947 29.0517 5.77257 12.8321 43.773 10.3833 1.66051 3.0643 -4.05873 11.436 3.36262 0.118806 4.04583 -2.41083 2.30104 15.3267 -2.22353 29.5123 -23.8794 10.3717 -23.5918 2.17167 1.39258 2.69544 -6.00525 -6.30673 -21.7108 -10.7004 0.102303 24.9754 -1.11765 -24.5551 1.187 0.258329 4.33513 -16.4938 -4.95448 
29.1424 97.0863 -103.64 4.08408 -6.56767 0.533371 0 0 0 -2.06145 4.92486 -1.08346 -2.77788 5.03808 -0.625098 14.6203 21.6235 -3.40504 -4.35546 -2.75889 4.44243 -24.8537 3.53046 -7.82876 -42.7894 1.94473 -20.4068 -1.3037 -10.9841 -6.75525 -8.46858 0.401348 -5.41688 28.9137 6.07282 13.7364 44.4994 11.4763 1.76868 3.49784 -5.48648 11.9557 2.6689 0.0936362 4.01798 -4.61854 3.26451 10.513 -4.41155 26.3386 -16.619 8.98436 -21.7497 1.72944 1.38759 3.37427 -6.02481 -7.60788 -21.3306 -8.52175 2.03002e-008 31.3978 -0.684451 -22.8571 -1.50169 -0.303588 4.18461 -15.7806 -4.16184 
